{
  "accessors": [
    {
      "bufferView": 2,
      "componentType": 5126,
      "count": 952,
      "max": [
        21.77651023864746,
        11.704285621643066,
        9.205069541931152
      ],
      "min": [
        -21.77651023864746,
        -11.7042818069458,
        -9.205069541931152
      ],
      "type": "VEC3"
    },
    {
      "bufferView": 2,
      "byteOffset": 11424,
      "componentType": 5126,
      "count": 952,
      "max": [
        1.0,
        1.0,
        1.0
      ],
      "min": [
        -1.0,
        -1.0,
        -1.0
      ],
      "type": "VEC3"
    },
    {
      "bufferView": 1,
      "componentType": 5126,
      "count": 952,
      "max": [
        1.0298810005187988,
        1.0
      ],
      "min": [
        -0.19327999651432037,
        -0.22176100313663483
      ],
      "type": "VEC2"
    },
    {
      "bufferView": 0,
      "componentType": 5125,
      "count": 1578,
      "type": "SCALAR"
    },
    {
      "bufferView": 2,
      "byteOffset": 22848,
      "componentType": 5126,
      "count": 8,
      "max": [
        21.02339744567871,
        4.415633201599121,
        5.12743616104126
      ],
      "min": [
        0.12580199539661407,
        -11.015847206115723,
        0.6674410104751587
      ],
      "type": "VEC3"
    },
    {
      "bufferView": 2,
      "byteOffset": 22944,
      "componentType": 5126,
      "count": 8,
      "max": [
        -0.17282606661319733,
        -0.3616078794002533,
        0.9126356840133667
      ],
      "min": [
        -0.19061993062496185,
        -0.3794669210910797,
        0.9085217714309692
      ],
      "type": "VEC3"
    },
    {
      "bufferView": 1,
      "byteOffset": 7616,
      "componentType": 5126,
      "count": 8,
      "max": [
        0.8412759900093079,
        0.9329180121421814
      ],
      "min": [
        -0.04897800087928772,
        0.27773401141166687
      ],
      "type": "VEC2"
    },
    {
      "bufferView": 0,
      "byteOffset": 6312,
      "componentType": 5125,
      "count": 18,
      "type": "SCALAR"
    },
    {
      "bufferView": 2,
      "byteOffset": 23040,
      "componentType": 5126,
      "count": 8,
      "max": [
        -2.4733059406280518,
        6.324534893035889,
        5.127346992492676
      ],
      "min": [
        -21.06008529663086,
        -3.8084120750427246,
        0.667352020740509
      ],
      "type": "VEC3"
    },
    {
      "bufferView": 2,
      "byteOffset": 23136,
      "componentType": 5126,
      "count": 8,
      "max": [
        0.020918995141983032,
        -0.40776389837265015,
        0.9128477573394775
      ],
      "min": [
        -0.006272998638451099,
        -0.4171598553657532,
        0.9088277220726013
      ],
      "type": "VEC3"
    },
    {
      "bufferView": 1,
      "byteOffset": 7680,
      "componentType": 5126,
      "count": 8,
      "max": [
        0.5032169818878174,
        0.8174260258674622
      ],
      "min": [
        0.1590930074453354,
        0.47486498951911926
      ],
      "type": "VEC2"
    },
    {
      "bufferView": 0,
      "byteOffset": 6384,
      "componentType": 5125,
      "count": 18,
      "type": "SCALAR"
    },
    {
      "bufferView": 2,
      "byteOffset": 23232,
      "componentType": 5126,
      "count": 20,
      "max": [
        20.157712936401367,
        11.46366024017334,
        8.813455581665039
      ],
      "min": [
        -19.906700134277344,
        -2.278870105743408,
        5.46910285949707
      ],
      "type": "VEC3"
    },
    {
      "bufferView": 2,
      "byteOffset": 23472,
      "componentType": 5126,
      "count": 20,
      "max": [
        0.0,
        -0.5238228440284729,
        0.8160547018051147
      ],
      "min": [
        -0.24426290392875671,
        -0.577974796295166,
        0.8093907237052917
      ],
      "type": "VEC3"
    },
    {
      "bufferView": 1,
      "byteOffset": 7744,
      "componentType": 5126,
      "count": 20,
      "max": [
        1.295714020729065,
        0.7611250281333923
      ],
      "min": [
        -0.24236799776554108,
        0.1317339986562729
      ],
      "type": "VEC2"
    },
    {
      "bufferView": 0,
      "byteOffset": 6456,
      "componentType": 5125,
      "count": 42,
      "type": "SCALAR"
    }
  ],
  "asset": {
    "extras": {
      "author": "Inditrion Dradnon (https://sketchfab.com/dradnon)",
      "license": "CC-BY-4.0 (http://creativecommons.org/licenses/by/4.0/)",
      "source": "https://sketchfab.com/3d-models/free-terminal-2-a3e11e8742074411a4bd642a2ee3c92a",
      "title": "Free Terminal 2"
    },
    "generator": "Sketchfab-12.63.0",
    "version": "2.0"
  },
  "bufferViews": [
    {
      "buffer": 0,
      "byteLength": 6624,
      "name": "floatBufferViews",
      "target": 34963
    },
    {
      "buffer": 0,
      "byteLength": 7904,
      "byteOffset": 6624,
      "byteStride": 8,
      "name": "floatBufferViews",
      "target": 34962
    },
    {
      "buffer": 0,
      "byteLength": 23712,
      "byteOffset": 14528,
      "byteStride": 12,
      "name": "floatBufferViews",
      "target": 34962
    }
  ],
  "buffers": [
    {
      "byteLength": 38240,
      "uri": "scene.bin"
    }
  ],
  "extensionsUsed": [
    "KHR_texture_transform"
  ],
  "images": [
    {
      "uri": "textures/MaterialFBXASC032FBXASC0352142150880_baseColor.jpeg"
    },
    {
      "uri": "textures/MaterialFBXASC032FBXASC0352142150880_metallicRoughness.png"
    },
    {
      "uri": "textures/MaterialFBXASC032FBXASC0352142172430_emissive.jpeg"
    },
    {
      "uri": "textures/MaterialFBXASC032FBXASC0352142171025_emissive.jpeg"
    },
    {
      "uri": "textures/MaterialFBXASC032FBXASC0352142171094_emissive.jpeg"
    }
  ],
  "materials": [
    {
      "doubleSided": true,
      "name": "MaterialFBXASC032FBXASC0352142150880",
      "pbrMetallicRoughness": {
        "baseColorTexture": {
          "index": 0
        },
        "metallicRoughnessTexture": {
          "index": 1
        }
      }
    },
    {
      "doubleSided": true,
      "emissiveFactor": [
        1.0,
        1.0,
        1.0
      ],
      "emissiveTexture": {
        "extensions": {
          "KHR_texture_transform": {
            "offset": [
              0.047053295446422005,
              -0.29904356548447064
            ],
            "scale": [
              1.2489800671668017,
              1.3289879530530655
            ]
          }
        },
        "index": 2
      },
      "name": "MaterialFBXASC032FBXASC0352142172430",
      "pbrMetallicRoughness": {
        "baseColorFactor": [
          0.0,
          0.0,
          0.0,
          1.0
        ],
        "metallicFactor": 0.0
      }
    },
    {
      "doubleSided": true,
      "emissiveFactor": [
        1.0,
        1.0,
        1.0
      ],
      "emissiveTexture": {
        "index": 3
      },
      "name": "MaterialFBXASC032FBXASC0352142171025",
      "pbrMetallicRoughness": {
        "baseColorFactor": [
          0.0,
          0.0,
          0.0,
          1.0
        ],
        "metallicFactor": 0.0
      }
    },
    {
      "doubleSided": true,
      "emissiveFactor": [
        1.0,
        1.0,
        1.0
      ],
      "emissiveTexture": {
        "extensions": {
          "KHR_texture_transform": {
            "offset": [
              -0.04672517301721868,
              0.006667245380225895
            ]
          }
        },
        "index": 4
      },
      "name": "MaterialFBXASC032FBXASC0352142171094",
      "pbrMetallicRoughness": {
        "baseColorFactor": [
          0.0,
          0.0,
          0.0,
          1.0
        ],
        "metallicFactor": 0.0
      }
    }
  ],
  "meshes": [
    {
      "name": "MaterialFBXASC032FBXASC0352142150880",
      "primitives": [
        {
          "attributes": {
            "NORMAL": 1,
            "POSITION": 0,
            "TEXCOORD_0": 2
          },
          "indices": 3,
          "material": 0,
          "mode": 4
        }
      ]
    },
    {
      "name": "MaterialFBXASC032FBXASC0352142172430",
      "primitives": [
        {
          "attributes": {
            "NORMAL": 5,
            "POSITION": 4,
            "TEXCOORD_0": 6
          },
          "indices": 7,
          "material": 1,
          "mode": 4
        }
      ]
    },
    {
      "name": "MaterialFBXASC032FBXASC0352142171025",
      "primitives": [
        {
          "attributes": {
            "NORMAL": 9,
            "POSITION": 8,
            "TEXCOORD_0": 10
          },
          "indices": 11,
          "material": 2,
          "mode": 4
        }
      ]
    },
    {
      "name": "MaterialFBXASC032FBXASC0352142171094",
      "primitives": [
        {
          "attributes": {
            "NORMAL": 13,
            "POSITION": 12,
            "TEXCOORD_0": 14
          },
          "indices": 15,
          "material": 3,
          "mode": 4
        }
      ]
    }
  ],
  "nodes": [
    {
      "children": [
        1
      ],
      "matrix": [
        1.0,
        0.0,
        0.0,
        0.0,
        0.0,
        2.220446049250313e-16,
        -1.0,
        0.0,
        0.0,
        1.0,
        2.220446049250313e-16,
        0.0,
        0.0,
        0.0,
        0.0,
        1.0
      ],
      "name": "Sketchfab_model"
    },
    {
      "children": [
        2
      ],
      "matrix": [
        1.0,
        0.0,
        0.0,
        0.0,
        0.0,
        -4.371139006309477e-08,
        0.999999999999999,
        0.0,
        0.0,
        -0.999999999999999,
        -4.371139006309477e-08,
        0.0,
        0.0,
        0.0,
        0.0,
        1.0
      ],
      "name": "Collada visual scene group"
    },
    {
      "children": [
        3,
        4,
        5,
        6
      ],
      "matrix": [
        0.737783,
        0.0,
        0.0,
        0.0,
        0.0,
        0.0,
        -0.737783,
        0.0,
        0.0,
        0.737783,
        0.0,
        0.0,
        -13.461608,
        -2.246506,
        -92.301132,
        1.0
      ],
      "name": "StandkonsoleFBXASC032120"
    },
    {
      "mesh": 0,
      "name": "MaterialFBXASC032FBXASC0352142150880"
    },
    {
      "mesh": 1,
      "name": "MaterialFBXASC032FBXASC0352142172430"
    },
    {
      "mesh": 2,
      "name": "MaterialFBXASC032FBXASC0352142171025"
    },
    {
      "mesh": 3,
      "name": "MaterialFBXASC032FBXASC0352142171094"
    }
  ],
  "samplers": [
    {
      "magFilter": 9729,
      "minFilter": 9987,
      "wrapS": 10497,
      "wrapT": 10497
    }
  ],
  "scene": 0,
  "scenes": [
    {
      "name": "Sketchfab_Scene",
      "nodes": [
        0
      ]
    }
  ],
  "textures": [
    {
      "sampler": 0,
      "source": 0
    },
    {
      "sampler": 0,
      "source": 1
    },
    {
      "sampler": 0,
      "source": 2
    },
    {
      "sampler": 0,
      "source": 3
    },
    {
      "sampler": 0,
      "source": 4
    }
  ]
}
